<svg width="60" height="60" viewBox="0 0 60 60" fill="none" xmlns="http://www.w3.org/2000/svg">
<path fill-rule="evenodd" clip-rule="evenodd" d="M58.2031 58.099V1.90097H28.2519V21.295L26.4697 19.7888V1.39197C26.4972 1.03674 26.6426 0.703498 26.8799 0.45187C27.0126 0.308708 27.1707 0.195035 27.345 0.11746C27.5194 0.0398861 27.7065 -4.13444e-05 27.8955 3.21258e-08H58.5596C58.7474 -3.46767e-05 58.9334 0.0394084 59.1068 0.116063C59.2803 0.192718 59.4378 0.305074 59.5703 0.446676L59.6338 0.519391C59.867 0.796316 59.9957 1.15521 59.9951 1.52701V16.179V58.099H50.7812V45.2389C50.7812 45.0089 50.6953 44.7883 50.5424 44.6256C50.3895 44.4629 50.1821 44.3715 49.9658 44.3715H44.1602V60H60V58.099H58.2031ZM3.77928 59.9948V41.4162C3.11803 41.7135 2.37879 41.7504 1.69432 41.5201C1.24291 41.3592 0.84457 41.0635 0.546856 40.6683C0.245661 40.2719 0.0560652 39.7929 -1.87922e-05 39.2867C-0.0396347 38.8199 0.0095569 38.3493 0.144621 37.9031C0.279686 37.457 0.497855 37.0443 0.786114 36.6898C0.819806 36.6461 0.857419 36.6061 0.898419 36.5703L19.6387 20.9886C19.7571 20.8702 19.9117 20.8013 20.0742 20.7946C20.2366 20.7879 20.3958 20.8439 20.5224 20.9522L39.3066 36.482L39.3896 36.5599C39.7637 36.9463 40.0399 37.4269 40.1927 37.9572C40.3455 38.4874 40.3699 39.0502 40.2637 39.5931C40.163 40.0442 39.9586 40.4616 39.6689 40.8079C39.3791 41.1542 39.013 41.4186 38.6035 41.5772C38.2406 41.7108 37.8562 41.7658 37.473 41.739C37.0898 41.7123 36.7155 41.6043 36.3721 41.4214V59.9065H34.5557V40.606C34.5557 40.2528 21.6699 29.4183 20.249 28.2393C18.7402 29.4598 5.60057 40.1852 5.60057 40.6579V60L3.77928 59.9948ZM20.1807 41.1357C22.0789 41.1467 23.8964 41.9544 25.2378 43.3832C26.5792 44.812 27.336 46.7463 27.3437 48.7656V56.894H13.0078V48.7656C13.013 46.7437 13.7703 44.8062 15.1144 43.3765C16.4584 41.9468 18.2799 41.1412 20.1807 41.1357ZM20.8008 42.4965V48.7864H26.1035C26.1048 47.2268 25.564 45.7217 24.5851 44.5607C23.6063 43.3996 22.2584 42.6644 20.8008 42.4965ZM20.8008 50.1108V55.5748H26.1035V50.1108H20.8008ZM19.5556 55.5748V50.1108H14.2578V55.5748H19.5556ZM19.5556 48.7916V42.4965C18.1026 42.6663 16.7593 43.3994 15.7821 44.5557C14.8049 45.7121 14.2623 47.2107 14.2578 48.7656L19.5556 48.7916ZM11.6894 58.338H28.667V59.6624H11.6894V58.338ZM32.5586 6.68456H37.3682C37.404 6.68585 37.4381 6.70159 37.4635 6.72859C37.4889 6.75558 37.5037 6.79183 37.5049 6.82999V12.751C37.5036 12.7887 37.4886 12.8244 37.4631 12.8505C37.4376 12.8767 37.4036 12.8913 37.3682 12.8913H32.5586C32.5409 12.892 32.5232 12.8889 32.5066 12.8821C32.4901 12.8754 32.475 12.8652 32.4622 12.8521C32.4494 12.839 32.4393 12.8233 32.4323 12.8059C32.4254 12.7886 32.4219 12.7699 32.4219 12.751V6.82999C32.4219 6.79142 32.4363 6.75443 32.4619 6.72715C32.4875 6.69988 32.5223 6.68456 32.5586 6.68456ZM49.0918 6.68456H53.9014C53.9372 6.68585 53.9713 6.70159 53.9967 6.72859C54.0221 6.75558 54.0369 6.79183 54.0381 6.82999V12.751C54.0368 12.7887 54.0219 12.8244 53.9963 12.8505C53.9708 12.8767 53.9368 12.8913 53.9014 12.8913H49.0918C49.0564 12.8913 49.0223 12.8767 48.9968 12.8505C48.9713 12.8244 48.9563 12.7887 48.9551 12.751V6.82999C48.9563 6.79183 48.9711 6.75558 48.9965 6.72859C49.0218 6.70159 49.0559 6.68585 49.0918 6.68456ZM40.8252 6.68456H45.6348C45.6706 6.68585 45.7047 6.70159 45.7301 6.72859C45.7555 6.75558 45.7703 6.79183 45.7715 6.82999V12.751C45.7702 12.7887 45.7552 12.8244 45.7297 12.8505C45.7042 12.8767 45.6702 12.8913 45.6348 12.8913H40.8252C40.8075 12.892 40.7898 12.8889 40.7732 12.8821C40.7567 12.8754 40.7416 12.8652 40.7288 12.8521C40.716 12.839 40.7059 12.8233 40.6989 12.8059C40.692 12.7886 40.6885 12.7699 40.6885 12.751V6.82999C40.6885 6.79142 40.7029 6.75443 40.7285 6.72715C40.7542 6.69988 40.7889 6.68456 40.8252 6.68456ZM32.5586 18.5734H37.3682C37.4036 18.5734 37.4376 18.588 37.4631 18.6142C37.4886 18.6403 37.5036 18.676 37.5049 18.7136V24.6347C37.5037 24.6729 37.4889 24.7091 37.4635 24.7361C37.4381 24.7631 37.404 24.7788 37.3682 24.7801H32.5586C32.5223 24.7801 32.4875 24.7648 32.4619 24.7375C32.4363 24.7103 32.4219 24.6733 32.4219 24.6347V18.6981C32.4219 18.6792 32.4254 18.6605 32.4323 18.6432C32.4393 18.6258 32.4494 18.6101 32.4622 18.597C32.475 18.5839 32.4901 18.5737 32.5066 18.567C32.5232 18.5602 32.5409 18.5571 32.5586 18.5578V18.5734ZM49.0918 18.5734H53.9014C53.9368 18.5734 53.9708 18.588 53.9963 18.6142C54.0219 18.6403 54.0368 18.676 54.0381 18.7136V24.6347C54.0369 24.6729 54.0221 24.7091 53.9967 24.7361C53.9713 24.7631 53.9372 24.7788 53.9014 24.7801H49.0918C49.0559 24.7788 49.0218 24.7631 48.9965 24.7361C48.9711 24.7091 48.9563 24.6729 48.9551 24.6347V18.6981C48.9563 18.6604 48.9713 18.6247 48.9968 18.5986C49.0223 18.5724 49.0564 18.5578 49.0918 18.5578V18.5734ZM40.8252 18.5734H45.6348C45.6702 18.5734 45.7042 18.588 45.7297 18.6142C45.7552 18.6403 45.7702 18.676 45.7715 18.7136V24.6347C45.7703 24.6729 45.7555 24.7091 45.7301 24.7361C45.7047 24.7631 45.6706 24.7788 45.6348 24.7801H40.8252C40.7889 24.7801 40.7542 24.7648 40.7285 24.7375C40.7029 24.7103 40.6885 24.6733 40.6885 24.6347V18.6981C40.6885 18.6792 40.692 18.6605 40.6989 18.6432C40.7059 18.6258 40.716 18.6101 40.7288 18.597C40.7416 18.5839 40.7567 18.5737 40.7732 18.567C40.7898 18.5602 40.8075 18.5571 40.8252 18.5578V18.5734ZM49.0918 30.4571H53.9014C53.9372 30.4584 53.9713 30.4741 53.9967 30.5011C54.0221 30.5281 54.0369 30.5643 54.0381 30.6025V36.5184C54.0369 36.5565 54.0221 36.5928 53.9967 36.6198C53.9713 36.6467 53.9372 36.6625 53.9014 36.6638H49.0918C49.0559 36.6625 49.0218 36.6467 48.9965 36.6198C48.9711 36.5928 48.9563 36.5565 48.9551 36.5184V30.6025C48.9563 30.5643 48.9711 30.5281 48.9965 30.5011C49.0218 30.4741 49.0559 30.4584 49.0918 30.4571ZM40.8252 30.4571H45.6348C45.6706 30.4584 45.7047 30.4741 45.7301 30.5011C45.7555 30.5281 45.7703 30.5643 45.7715 30.6025V36.5184C45.7703 36.5565 45.7555 36.5928 45.7301 36.6198C45.7047 36.6467 45.6706 36.6625 45.6348 36.6638H44.1699V34.7057L40.6982 31.7763V30.6025C40.6982 30.5639 40.7126 30.5269 40.7383 30.4997C40.7639 30.4724 40.7987 30.4571 40.835 30.4571H40.8252Z" fill="#2B57B3"/>
</svg>
