<svg width="30" height="30" viewBox="0 0 30 30" fill="none" xmlns="http://www.w3.org/2000/svg">
<circle cx="15" cy="15" r="15" fill="#B1CF5C"/>
<path d="M10.35 10.575C9.74998 9.975 7.19999 9.82502 6.37498 9.75C6.29999 9.75 6.22496 9.75 6.14998 9.82499C6.07499 9.90001 6 10.05 6 10.125V16.875C6 17.1 6.15001 17.25 6.37501 17.25H8.62501C8.77502 17.25 8.925 17.175 9.00002 17.025C9.00002 16.8 10.35 12.825 10.5 10.875C10.5 10.8 10.5 10.65 10.35 10.575Z" fill="white"/>
<path d="M18.375 12.3749C17.625 12.1499 16.95 11.85 16.35 11.625C15 11.0249 14.4 11.325 13.2 12.525C12.675 13.0499 12.3 13.8 12.375 14.1C12.375 14.1749 12.375 14.1749 12.525 14.25C12.9 14.4 13.425 14.475 13.95 13.65C14.025 13.575 14.1 13.4999 14.25 13.4999C14.475 13.4999 14.55 13.425 14.775 13.3499C14.925 13.2749 15.075 13.1999 15.3 13.1249C15.375 13.1249 15.375 13.1249 15.45 13.1249C15.525 13.1249 15.675 13.1999 15.75 13.1999C16.125 13.575 16.8 14.1 17.475 14.7C18.525 15.525 19.575 16.425 20.1 17.1H20.175C19.65 15.6 18.75 13.0499 18.375 12.3749Z" fill="white"/>
<path d="M23.625 10.5C20.7 10.5 19.05 11.25 18.975 11.25C18.9 11.325 18.825 11.4 18.75 11.475C18.75 11.55 18.75 11.7 18.825 11.775C19.275 12.525 20.775 16.65 21 17.7C21.075 17.85 21.225 18 21.375 18H23.625C23.85 18 24 17.8499 24 17.6249V10.8749C24 10.65 23.85 10.5 23.625 10.5Z" fill="white"/>
<path d="M19.575 17.85C19.275 17.175 18 16.2 16.875 15.3C16.275 14.775 15.675 14.325 15.225 13.95C15.15 14.025 15 14.025 15 14.1C14.775 14.175 14.7 14.25 14.4 14.25C13.8 15 13.05 15.3 12.225 15C11.85 14.925 11.625 14.625 11.55 14.325C11.4 13.575 12.075 12.525 12.6 12H11.1C10.8 13.5 10.275 15.45 9.90002 16.5C10.2 16.8 10.5 17.175 10.725 17.325C12.15 18.525 13.8001 19.725 14.1 19.95C14.325 20.1 14.775 20.25 15 20.25C15.075 20.25 15.1501 20.25 15.225 20.25L14.025 19.05C13.875 18.9 13.875 18.675 14.025 18.525C14.175 18.375 14.4 18.375 14.55 18.525L16.05 20.025C16.2 20.175 16.35 20.1 16.5 20.1C16.725 20.025 16.8 19.875 16.875 19.65L15.15 17.925C15 17.775 15 17.55 15.15 17.4C15.3 17.25 15.525 17.25 15.675 17.4L17.55 19.275C17.625 19.35 17.925 19.35 18.15 19.275C18.225 19.2 18.375 19.125 18.45 18.975L16.35 16.875C16.2 16.725 16.2 16.5 16.35 16.35C16.5 16.2 16.725 16.2 16.875 16.35L19.05 18.525C19.2 18.6 19.35 18.525 19.5 18.45C19.575 18.375 19.725 18.15 19.575 17.85Z" fill="white"/>
</svg>
