<svg width="16" height="16" viewBox="0 0 16 16" fill="none" xmlns="http://www.w3.org/2000/svg">
<path d="M7.91 5.855C8.87 5.9 9.1175 6.7175 9.1325 7.1H10.475C10.415 5.615 9.3575 4.7075 7.8875 4.7075C6.23 4.7075 5 5.75 5 8.105C5 9.56 5.6975 11.285 7.88 11.285C9.545 11.285 10.4375 10.0475 10.46 9.0725H9.1175C9.095 9.515 8.78 10.1075 7.895 10.1525C6.9125 10.1225 6.5 9.3575 6.5 8.105C6.5 5.9375 7.46 5.87 7.91 5.855ZM8 0.5C3.86 0.5 0.5 3.86 0.5 8C0.5 12.14 3.86 15.5 8 15.5C12.14 15.5 15.5 12.14 15.5 8C15.5 3.86 12.14 0.5 8 0.5ZM8 14C4.6925 14 2 11.3075 2 8C2 4.6925 4.6925 2 8 2C11.3075 2 14 4.6925 14 8C14 11.3075 11.3075 14 8 14Z" fill="white"/>
</svg>
