<svg width="30" height="30" viewBox="0 0 30 30" fill="none" xmlns="http://www.w3.org/2000/svg">
<circle cx="15" cy="15" r="15" fill="#B1CF5C"/>
<path d="M17.6666 13.7085C18.9808 13.7085 20.0337 12.6477 20.0337 11.3335C20.0337 10.0193 18.9808 8.9585 17.6666 8.9585C16.3525 8.9585 15.2916 10.0193 15.2916 11.3335C15.2916 12.6477 16.3525 13.7085 17.6666 13.7085ZM11.3333 13.7085C12.6475 13.7085 13.7004 12.6477 13.7004 11.3335C13.7004 10.0193 12.6475 8.9585 11.3333 8.9585C10.0191 8.9585 8.95829 10.0193 8.95829 11.3335C8.95829 12.6477 10.0191 13.7085 11.3333 13.7085ZM11.3333 15.2918C9.48871 15.2918 5.79163 16.2181 5.79163 18.0627V20.0418H16.875V18.0627C16.875 16.2181 13.1779 15.2918 11.3333 15.2918ZM17.6666 15.2918C17.437 15.2918 17.1758 15.3077 16.8987 15.3314C17.817 15.9964 18.4583 16.891 18.4583 18.0627V20.0418H23.2083V18.0627C23.2083 16.2181 19.5112 15.2918 17.6666 15.2918Z" fill="white"/>
</svg>
