<svg width="62" height="68" viewBox="0 0 62 68" fill="none" xmlns="http://www.w3.org/2000/svg">
<g clip-path="url(#clip0_1015_266)">
<path d="M0.0279935 36.0088C0.0111974 36.457 0 36.9108 0 37.3646C0 39.4785 0.207152 41.5205 0.615857 43.5238C1.00217 45.4883 1.60123 47.3809 2.40184 49.2402C2.40184 49.2624 2.42424 49.2956 2.43543 49.3177C3.23045 51.1716 4.19902 52.9036 5.30197 54.5361C6.39931 56.1742 7.66462 57.6794 9.0587 59.0573C10.4528 60.4518 11.9812 61.6859 13.6328 62.765C15.29 63.8662 17.0536 64.807 18.9124 65.5983C20.8104 66.4063 22.7643 66.9928 24.7686 67.3968C26.7674 67.7952 28.8501 68 30.9888 68C33.1275 68 35.1934 67.7952 37.2202 67.3913C39.2077 67.0094 41.1224 66.4173 43.0036 65.626C43.026 65.626 43.0596 65.6038 43.082 65.5928C44.9408 64.807 46.7099 63.8496 48.3616 62.7594C50.0188 61.6748 51.5416 60.4242 52.9357 59.0518C54.3466 57.6738 55.5951 56.1631 56.6924 54.5306C57.8066 52.8926 58.7528 51.1494 59.559 49.3122C60.3764 47.4362 60.9698 45.5049 61.3785 43.5238C61.7872 41.5371 61.9944 39.4785 61.9944 37.3646C61.9944 36.9108 61.9832 36.4626 61.9664 36.0143C41.38 36.0088 20.6648 36.0088 0.0279935 36.0088ZM2.74896 38.7038H11.3206C11.6397 42.8929 13.0506 47.0986 15.5588 51.3486H6.48889C5.91223 50.3581 5.39155 49.3288 4.92686 48.2441C4.90446 48.222 4.90446 48.2109 4.89326 48.1888C4.18783 46.5176 3.62796 44.7855 3.27524 42.987C2.98971 41.5924 2.81055 40.1758 2.74896 38.7038ZM8.25248 54.0326H17.3056C19.8866 57.707 23.2962 61.4036 27.5344 65.1113C26.773 65.0228 26.0284 64.9066 25.3061 64.7627C23.4641 64.3919 21.7006 63.8607 19.9874 63.1247C18.2574 62.3942 16.6449 61.5254 15.1333 60.5293C13.6272 59.5387 12.25 58.4154 10.9679 57.1481C9.98248 56.1742 9.06989 55.1449 8.25248 54.0436V54.0326V54.0326ZM34.4544 65.1113C38.715 61.3981 42.1134 57.707 44.6832 54.0326H53.7363C52.9189 55.1338 52.0063 56.1686 51.0209 57.137C49.7388 58.4043 48.3616 59.5277 46.8555 60.5182C45.3663 61.5088 43.7482 62.3721 42.0014 63.1136C41.979 63.1357 41.9679 63.1357 41.9455 63.1468C40.2546 63.8441 38.5023 64.3975 36.6827 64.7461C35.938 64.8955 35.1934 65.0062 34.4544 65.0947V65.1113V65.1113ZM55.5055 51.3486H46.43C48.9438 47.1042 50.3547 42.8984 50.6682 38.7038H59.2398C59.1671 40.1758 58.9991 41.5924 58.7192 42.987C58.344 44.8076 57.8066 46.5508 57.0619 48.2441C56.5973 49.3232 56.0766 50.3581 55.5055 51.3486ZM32.3549 63.3682V54.0326H41.352C38.9893 57.1204 35.994 60.2249 32.3549 63.3682ZM32.3549 51.3486V38.7038H47.9529C47.6001 42.8597 46.0381 47.0654 43.25 51.3486H32.3549V51.3486ZM29.6395 38.7038V51.3486H18.7444C15.9563 47.0654 14.3943 42.8542 14.0415 38.7038H29.6395ZM29.6395 54.0326V63.3682C25.9948 60.2249 22.9995 57.1204 20.6368 54.0326H29.6395Z" fill="#9EEFF4"/>
<path fill-rule="evenodd" clip-rule="evenodd" d="M46.7044 21.1062L47.6729 21.0841L48.4791 21.0619C47.533 18.2009 47.8521 15.5723 50.114 13.3367C50.4947 14.5652 51.3569 15.5779 52.8237 16.3249C53.5236 16.8396 54.201 17.4594 54.8561 18.1732C54.9736 17.6973 54.5313 17.1273 53.9939 16.5352C54.4921 16.7787 54.9456 17.1163 55.276 17.7693C55.6567 18.5274 55.6511 19.1693 55.5223 19.9884C55.4607 20.3702 55.3711 20.7244 55.2368 21.0564H56.5749C57.9857 18.0626 57.0899 13.6244 54.201 11.7484C53.3108 11.1729 52.6782 11.1951 51.6368 11.1951C50.4443 11.1951 49.834 11.2283 48.8151 11.8979C47.3146 12.8829 46.3908 14.5818 45.9989 16.9447C45.9261 18.1234 45.8701 20.1599 46.7044 21.1062ZM0.537476 31.7146C0.655048 28.4828 4.57414 28.3555 7.63663 26.4685L9.68575 31.7146H0.537476ZM13.8232 29.9382H14.2263C14.5902 29.9382 14.8869 29.6449 14.8869 29.2852V28.2283C14.8869 27.8686 14.5902 27.5753 14.2263 27.5753H11.8357C11.4717 27.5753 11.175 27.8686 11.175 28.2283V29.2852C11.175 29.6449 11.4717 29.9382 11.8357 29.9382H12.2444L11.8916 31.7146H14.1647L13.8232 29.9382ZM9.64096 24.1885C9.71934 23.5743 7.88297 21.5544 7.54705 20.4366C6.83041 19.3077 6.57287 18.14 7.35669 16.9447C7.67022 16.4688 7.53585 15.1905 7.53585 14.5375C7.53585 8.05736 19.03 8.05183 19.03 14.5375C19.03 15.3565 18.8396 16.4246 19.2875 17.072C20.0377 18.1511 19.6514 19.4405 19.0132 20.4421C18.6101 21.6208 16.6897 23.5245 16.8185 24.1941C16.9361 27.5144 9.61857 27.4037 9.64096 24.1885ZM28.5478 22.9158L31.4255 31.2663L32.8756 26.308L32.1645 25.5443C31.8398 25.0795 31.7726 24.6811 31.9518 24.3324C32.3381 23.5854 33.1275 23.7182 33.8665 23.7182C34.6448 23.7182 35.6077 23.5743 35.8485 24.5372C35.9269 24.8637 35.8261 25.1957 35.6021 25.5443L34.8911 26.308L36.3412 31.2663L38.9446 22.9158C42.3318 25.9317 49.1566 24.1664 49.9796 31.7091H16.6001C17.4679 23.768 25.1326 25.9594 28.5478 22.9158ZM26.2019 11.8591C26.2187 12.3295 26.4651 12.9438 26.9521 13.6576L26.9633 13.6687L28.5702 16.1921C29.214 17.2048 29.8803 18.2286 30.7201 18.9812C31.5095 19.7006 32.4837 20.1876 33.7546 20.1876C35.1374 20.1931 36.1396 19.684 36.9626 18.9259C37.8192 18.1345 38.5023 17.0388 39.1741 15.9486L40.9825 13.0102C41.352 12.1801 41.464 11.6765 41.3408 11.433C41.2736 11.2947 41.0217 11.2449 40.6186 11.2615C40.3386 11.3389 40.0139 11.3389 39.6276 11.2338L40.361 8.46133C34.6951 9.03685 31.5095 3.79629 27.4728 7.78067L27.9991 11.0678C27.344 11.2006 26.1571 10.78 26.2019 11.8591ZM41.4528 10.3152C41.8335 10.4314 42.1078 10.6417 42.2758 10.9792C42.5501 11.516 42.4381 12.3184 41.9287 13.4639C41.9175 13.4861 41.9063 13.5027 41.9007 13.5248L40.0699 16.502C39.3589 17.6531 38.6422 18.8096 37.6792 19.7006C36.6827 20.6303 35.4398 21.2501 33.749 21.239C32.1701 21.2335 30.9776 20.6413 30.0034 19.7559C29.0628 18.9093 28.3518 17.8191 27.6744 16.7566L26.0675 14.2331C25.4741 13.3533 25.1662 12.5509 25.1438 11.8868C25.1326 11.5658 25.1885 11.2836 25.3117 11.0235C25.4405 10.7579 25.6308 10.531 25.894 10.3539C26.0228 10.2764 26.1683 10.199 26.3195 10.1436C26.2187 8.7823 26.1851 7.09447 26.2523 5.68334C26.2859 5.34024 26.3531 4.99714 26.4483 4.64851C26.857 3.19864 27.8927 2.03653 29.1636 1.22858C29.6115 0.951892 30.1042 0.708402 30.6249 0.525785C33.7042 -0.569919 37.7912 0.0332716 39.9803 2.37409C40.8761 3.32592 41.436 4.59317 41.5535 6.26993L41.4528 10.3152ZM50.3883 26.546L51.1105 24.0613L50.7578 23.6794C50.5954 23.4525 50.5675 23.2478 50.6514 23.0762C50.8418 22.6999 51.2393 22.7719 51.6088 22.7719C51.9951 22.7719 52.4766 22.6944 52.5998 23.1814C52.639 23.3419 52.5886 23.5079 52.4822 23.685L52.1239 24.0723L52.8461 26.557L51.6144 27.5199L50.3883 26.546ZM56.8604 25.6827C56.3117 24.5981 55.6175 23.6739 54.8057 22.8106C56.3285 23.3917 57.8906 23.9672 59.0383 24.6866C59.7717 25.1404 60.1524 25.4835 60.4436 26.0313C61.0762 27.2045 61.1434 28.2504 61.233 29.5232L61.4569 31.7146H52.555C52.3143 30.7019 52.1799 29.8552 51.676 28.7318C53.2156 27.2322 54.8561 26.0147 56.8604 25.6827ZM45.9373 23.7901C46.7883 23.4193 47.6673 23.1039 48.4344 22.8106C47.9977 23.281 47.5945 23.7624 47.2306 24.2771C46.8219 24.1111 46.3908 23.9451 45.9373 23.7901Z" fill="#9EEFF4"/>
</g>
<defs>
<clipPath id="clip0_1015_266">
<rect width="62" height="68" fill="white"/>
</clipPath>
</defs>
</svg>
