<svg width="30" height="30" viewBox="0 0 30 30" fill="none" xmlns="http://www.w3.org/2000/svg">
<circle cx="15" cy="15" r="15" fill="#B1CF5C"/>
<path d="M9.00011 18.396C9.14855 18.2784 9.36339 18.3061 9.47928 18.4568C9.59516 18.6074 9.56782 18.8254 9.41938 18.943L7.69672 20.3015L7.6837 22.1317L9.79959 22.0114L10.948 20.1588C11.0483 19.9976 11.2592 19.9487 11.4181 20.0504C11.5769 20.1522 11.6251 20.3662 11.5248 20.5275L10.2879 22.5215C10.2319 22.618 10.1303 22.6854 10.0118 22.692L7.35949 22.8439C7.35297 22.8439 7.34646 22.8439 7.33995 22.8439C7.15245 22.8426 7.00011 22.688 7.00141 22.4964L7.01834 20.1561C7.01053 20.0438 7.0561 19.9302 7.14985 19.8562L9.00011 18.396ZM12.2202 14.1264C13.0795 11.5192 14.2384 9.6705 15.8686 8.50631C17.56 7.29719 19.7345 6.83998 22.5834 7.04876C22.7801 7.0633 22.9311 7.22716 22.9337 7.42273C23.2097 10.5532 22.6108 12.7732 21.3347 14.4554C20.1069 16.0729 18.2644 17.167 15.978 18.0854V21.1419C15.978 21.2912 15.8933 21.4221 15.7696 21.4842L13.4415 22.9444C13.2644 23.0554 13.0327 22.9999 12.9233 22.8202C12.8946 22.7726 12.8764 22.721 12.8699 22.6695C12.3543 18.6708 11.8061 18.4792 8.58475 17.3481C8.19933 17.2133 7.78396 17.0666 7.50271 16.9662C7.3061 16.8961 7.20324 16.6768 7.27225 16.4786C7.28657 16.4363 7.3087 16.398 7.33475 16.3636L8.8699 14.1436C8.94672 14.0326 9.07172 13.9744 9.19542 13.981L12.2202 14.1264ZM18.8113 11.1809C18.603 10.9695 18.3165 10.84 17.9988 10.84C17.6824 10.84 17.3946 10.9708 17.1863 11.1809C16.978 11.3923 16.8504 11.6831 16.8504 12.0055C16.8504 12.3266 16.9793 12.6186 17.1863 12.8301C17.3946 13.0415 17.6811 13.171 17.9988 13.171C18.3152 13.171 18.603 13.0402 18.8113 12.8301C19.0196 12.6186 19.1472 12.3279 19.1472 12.0055C19.1472 11.6831 19.0183 11.3923 18.8113 11.1809Z" fill="white"/>
</svg>
