<svg width="40" height="40" viewBox="0 0 40 40" fill="none" xmlns="http://www.w3.org/2000/svg">
<circle cx="20" cy="20" r="20" fill="#D73D32"/>
<path d="M12.3578 14.7538L12.358 14.7534C12.5646 14.2072 12.8873 13.7124 13.3038 13.3031C13.7123 12.886 14.2075 12.5637 14.7543 12.3592C15.3836 12.1232 16.0484 11.9956 16.7204 11.9817C17.568 11.9429 17.8427 11.9338 19.9961 11.9338L12.3578 14.7538ZM12.3578 14.7538C12.1217 15.3838 11.9945 16.0494 11.9817 16.7221C11.9442 17.5702 11.9338 17.8434 11.9338 20C11.9338 22.1565 11.9429 22.4286 11.9817 23.2781C11.9955 23.9503 12.1231 24.6153 12.3591 25.2449L12.3592 25.2451M12.3578 14.7538L12.3592 25.2451M12.3592 25.2451C12.5646 25.7914 12.8865 26.2864 13.3025 26.6956C13.7114 27.1127 14.2062 27.4357 14.7526 27.6419L14.753 27.6421M12.3592 25.2451L14.753 27.6421M14.753 27.6421C15.3829 27.8776 16.0481 28.0048 16.7205 28.0183C17.5684 28.0572 17.8417 28.0662 19.9974 28.0662C22.1531 28.0662 22.4252 28.0572 23.2744 28.0183C23.9467 28.0048 24.6119 27.8776 25.2418 27.6421L25.2419 27.6421M14.753 27.6421L25.2419 27.6421M25.2419 27.6421L25.2433 27.6415M25.2419 27.6421L25.2433 27.6415M25.2433 27.6415C25.7875 27.4304 26.2817 27.1081 26.6944 26.6953C27.1071 26.2824 27.4293 25.788 27.6404 25.2437L27.641 25.2421M25.2433 27.6415L27.641 25.2421M27.641 25.2421C27.8756 24.6123 28.0032 23.9475 28.0183 23.2755C28.0558 22.4273 28.0662 22.1542 28.0662 19.9974C28.0662 17.8406 28.0558 17.5675 28.0183 16.7194C28.0032 16.0469 27.8757 15.3818 27.641 14.7515L27.6408 14.751M27.641 25.2421L27.6408 14.751M27.6408 14.751C27.4351 14.2046 27.1128 13.7096 26.6962 13.3005C26.2879 12.8831 25.7927 12.5608 25.2457 12.3566L25.202 12.4737M27.6408 14.751L25.202 12.4737M25.202 12.4737L25.2457 12.3566C24.614 12.1209 23.947 11.9941 23.273 11.9817M25.202 12.4737L23.273 11.9817M19.1605 13.6146V13.6135C17.7908 13.6153 17.5052 13.6259 16.796 13.6572L16.7921 13.6573L16.7921 13.6573C16.3029 13.6638 15.8185 13.7538 15.3596 13.9235L19.1605 13.6146ZM19.1605 13.6146H19.2855M19.1605 13.6146H19.2855M19.2855 13.6146H19.9987C22.1172 13.6146 22.3656 13.6224 23.1999 13.661L23.1999 13.6611M19.2855 13.6146L23.1999 13.6611M23.1999 13.6611L23.2042 13.6612M23.1999 13.6611L23.2042 13.6612M23.2042 13.6612C23.6933 13.6667 24.1778 13.7564 24.6366 13.9261L24.6366 13.9261M23.2042 13.6612L24.6366 13.9261M24.6366 13.9261C24.9638 14.047 25.2596 14.2399 25.5024 14.4904L25.5023 14.4905M24.6366 13.9261L25.5023 14.4905M25.5023 14.4905L25.505 14.493M25.5023 14.4905L25.505 14.493M25.505 14.493C25.755 14.7363 25.9478 15.0322 26.0693 15.3593C26.239 15.8182 26.3286 16.3029 26.3342 16.7921L26.3341 16.7921M25.505 14.493L26.3341 16.7921M26.3341 16.7921L26.3343 16.7965M26.3341 16.7921L26.3343 16.7965M26.3343 16.7965C26.3729 17.6298 26.3807 17.8795 26.3807 19.9987C26.3807 22.1179 26.3729 22.3664 26.3343 23.201L26.3342 23.2009M26.3343 16.7965L26.3342 23.2009M26.3342 23.2009L26.3342 23.2053M26.3342 23.2009L26.3342 23.2053M26.3342 23.2053C26.3287 23.6939 26.2392 24.1778 26.0696 24.636C25.9436 24.9616 25.751 25.2573 25.5041 25.5041C25.2571 25.7509 24.9613 25.9433 24.6357 26.0691C24.1776 26.2399 23.6933 26.3299 23.2044 26.335L23.2044 26.3349M26.3342 23.2053L23.2044 26.3349M23.2044 26.3349L23.1999 26.3351M23.2044 26.3349L23.1999 26.3351M23.1999 26.3351C22.3669 26.3737 22.1173 26.3815 19.9987 26.3815C17.8802 26.3815 17.6305 26.3737 16.7962 26.3351L16.7962 26.335M23.1999 26.3351L16.7962 26.335M16.7962 26.335L16.792 26.335M16.7962 26.335L16.792 26.335M16.792 26.335C16.3028 26.329 15.8183 26.239 15.3597 26.0688L15.3593 26.0686M16.792 26.335L15.3593 26.0686M15.3593 26.0686C15.0318 25.9483 14.7355 25.7558 14.4923 25.5056L14.4923 25.5055M15.3593 26.0686L14.4923 25.5055M14.4923 25.5055L14.4898 25.5031M14.4923 25.5055L14.4898 25.5031M14.4898 25.5031C14.2398 25.2601 14.0474 24.9642 13.9269 24.637L13.9268 24.6367M14.4898 25.5031L13.9268 24.6367M13.9268 24.6367C13.7567 24.1779 13.6666 23.6932 13.6607 23.2039L13.6607 23.2039M13.9268 24.6367L13.6607 23.2039M13.6607 23.2039L13.6606 23.1999M13.6607 23.2039L13.6606 23.1999M13.6606 23.1999C13.6232 22.3652 13.6155 22.1166 13.6155 19.9961C13.6155 17.8756 13.6232 17.6284 13.6606 16.7937L13.6606 16.7937M13.6606 23.1999L13.6606 16.7937M13.6606 16.7937L13.6607 16.7895M13.6606 16.7937L13.6607 16.7895M13.6607 16.7895C13.6659 16.3002 13.7559 15.8155 13.9267 15.357L13.9269 15.3566M13.6607 16.7895L13.9269 15.3566M13.9269 15.3566C14.0474 15.0294 14.2398 14.7335 14.4898 14.4905L14.4898 14.4906M13.9269 15.3566L14.4898 14.4906M14.4898 14.4906L14.4923 14.488M14.4898 14.4906L14.4923 14.488M14.4923 14.488C14.7358 14.2376 15.0321 14.0448 15.3595 13.9236L14.4923 14.488ZM23.273 11.9817C22.4242 11.9429 22.152 11.9338 19.9987 11.9338L23.273 11.9817ZM19.9987 15.7971H19.9987C19.1677 15.7971 18.3554 16.0436 17.6644 16.5055C16.9735 16.9673 16.435 17.6237 16.117 18.3917C15.799 19.1596 15.7158 20.0047 15.8779 20.8199C16.04 21.6352 16.4402 22.3841 17.0278 22.9719C17.6153 23.5597 18.364 23.96 19.179 24.1221C19.994 24.2843 20.8388 24.2011 21.6066 23.883C22.3743 23.5648 23.0305 23.0261 23.4922 22.335C23.9538 21.6438 24.2002 20.8313 24.2002 20L24.2002 20C24.1999 18.8854 23.7571 17.8166 22.9693 17.0285C22.1814 16.2404 21.113 15.7975 19.9987 15.7971ZM19.9989 17.4831L20.1237 17.4829V17.4809C20.5787 17.5028 21.0202 17.6476 21.4006 17.9012C21.8157 18.1779 22.1394 18.5715 22.3308 19.0323C22.5222 19.4931 22.5727 20.0003 22.4758 20.4898C22.3789 20.9793 22.1391 21.429 21.7866 21.7821C21.4342 22.1352 20.985 22.3757 20.4958 22.4733C20.0066 22.571 19.4995 22.5212 19.0386 22.3305C18.5777 22.1397 18.1838 21.8164 17.9066 21.4016C17.6294 20.9868 17.4814 20.499 17.4814 20C17.4828 19.3327 17.7484 18.6931 18.2203 18.2214C18.6922 17.7496 19.3317 17.4841 19.9989 17.4831ZM24.648 14.7646C24.5171 14.7105 24.3769 14.6828 24.2353 14.683L25.189 15.7606L25.314 15.7606C25.314 15.7605 25.314 15.7605 25.314 15.7604C25.314 15.6188 25.2861 15.4787 25.2319 15.3479C25.1777 15.2171 25.0982 15.0982 24.998 14.9981C24.8978 14.898 24.7789 14.8187 24.648 14.7646Z" fill="white" stroke="white" stroke-width="0.25"/>
</svg>
