<svg width="78" height="58" viewBox="0 0 78 58" fill="none" xmlns="http://www.w3.org/2000/svg">
<g clip-path="url(#clip0_1015_270)">
<path fill-rule="evenodd" clip-rule="evenodd" d="M1.96777 54.1124H9.24853C9.009 53.8571 8.87926 53.5199 8.88672 53.1719V23.7016C8.88672 23.3441 9.0305 23.0012 9.28644 22.7484C9.54238 22.4955 9.88951 22.3535 10.2515 22.3535H67.4438C67.8053 22.3552 68.1514 22.4977 68.407 22.7502C68.6626 23.0027 68.8069 23.3446 68.8086 23.7016V53.1719C68.8059 53.5228 68.6674 53.8593 68.4214 54.1124H76.0386C76.5605 54.1124 77.061 54.3172 77.43 54.6818C77.799 55.0463 78.0063 55.5407 78.0063 56.0562C78.0063 56.5717 77.799 57.0662 77.43 57.4307C77.061 57.7952 76.5605 58 76.0386 58H1.96777C1.44589 58 0.945377 57.7952 0.576348 57.4307C0.207318 57.0662 0 56.5717 0 56.0562C0 55.5407 0.207318 55.0463 0.576348 54.6818C0.945377 54.3172 1.44589 54.1124 1.96777 54.1124V54.1124ZM55.9229 13.7946H52.0508V19.789H49.3403V12.4528C49.3395 12.2763 49.3741 12.1015 49.442 11.9383C49.51 11.7751 49.61 11.6269 49.7363 11.5021C49.8626 11.3773 50.0127 11.2785 50.1779 11.2114C50.3431 11.1442 50.5201 11.1101 50.6987 11.1109H55.9419C56.2738 10.2447 56.9041 9.52169 57.7222 9.06909C58.5403 8.61648 59.4937 8.46322 60.4148 8.63623C61.3359 8.80924 62.1659 9.29746 62.7587 10.0151C63.3515 10.7327 63.6693 11.6337 63.6561 12.5598C63.643 13.486 63.2998 14.3779 62.6868 15.0788C62.0739 15.7797 61.2304 16.2447 60.3047 16.3922C59.3791 16.5396 58.4304 16.36 57.6255 15.8849C56.8206 15.4098 56.211 14.6697 55.9038 13.7946H55.9229ZM27.9297 14.7351V19.789H25.2065V16.077H22.0898C21.7697 16.9472 21.1493 17.6782 20.3377 18.1415C19.5261 18.6047 18.5752 18.7706 17.652 18.6101C16.7288 18.4495 15.8925 17.9727 15.2899 17.2635C14.6872 16.5543 14.3569 15.6579 14.3569 14.732C14.3569 13.8061 14.6872 12.9097 15.2899 12.2005C15.8925 11.4913 16.7288 11.0145 17.652 10.8539C18.5752 10.6934 19.5261 10.8593 20.3377 11.3225C21.1493 11.7858 21.7697 12.5168 22.0898 13.387H26.5967C26.775 13.3869 26.9515 13.4217 27.1161 13.4895C27.2806 13.5573 27.4299 13.6568 27.5552 13.7821C27.8019 14.0389 27.9364 14.3812 27.9297 14.7351V14.7351ZM20.9854 0C20.2672 0.000245618 19.5625 0.192102 18.9457 0.555296C18.3289 0.91849 17.8228 1.43953 17.481 2.06337C17.1392 2.68721 16.9743 3.39067 17.0038 4.09942C17.0333 4.80817 17.256 5.4959 17.6485 6.08993C18.041 6.68395 18.5886 7.16222 19.2336 7.47419C19.8785 7.78616 20.5967 7.92025 21.3125 7.86229C22.0282 7.80433 22.7147 7.55647 23.2996 7.14491C23.8845 6.73334 24.346 6.17335 24.6353 5.52411H32.6079V19.789H35.3247V4.18854C35.3264 4.01157 35.2925 3.83603 35.2249 3.67213C35.1573 3.50823 35.0574 3.35923 34.931 3.2338C34.8046 3.10837 34.6542 3.009 34.4886 2.94147C34.323 2.87394 34.1455 2.83959 33.9663 2.84043H24.813C24.5742 2.02396 24.0741 1.30589 23.3875 0.79381C22.7008 0.281731 21.8647 0.00321792 21.0044 0L20.9854 0ZM43.0688 0.0627027C42.1294 0.0602921 41.2192 0.385733 40.499 0.981606C39.7787 1.57748 39.2947 2.40549 39.1322 3.31955C38.9698 4.23361 39.1394 5.17497 39.6111 5.97754C40.0828 6.78012 40.8263 7.39233 41.7104 7.70616V19.789H44.4336V7.70616C45.3183 7.39216 46.0621 6.77943 46.5338 5.97619C47.0055 5.17296 47.1746 4.23091 47.0113 3.31644C46.8481 2.40197 46.3629 1.57392 45.6415 0.978549C44.9201 0.383179 44.0089 0.0587979 43.0688 0.0627027V0.0627027ZM32.4492 30.0973C32.4459 28.8906 32.7893 27.7078 33.4395 26.6863H44.5605C45.2113 27.7076 45.5548 28.8905 45.5508 30.0973C45.5508 31.8135 44.8606 33.4594 43.6321 34.6729C42.4036 35.8865 40.7374 36.5682 39 36.5682C37.2626 36.5682 35.5964 35.8865 34.3679 34.6729C33.1394 33.4594 32.4492 31.8135 32.4492 30.0973ZM57.9097 30.3418V31.6962C57.908 32.3066 57.6622 32.8916 57.2259 33.3238C56.7895 33.756 56.198 34.0004 55.5801 34.0037H53.187C52.8884 35.3185 52.4033 36.5851 51.7461 37.7658L53.3203 39.3083C53.7556 39.7407 54 40.3257 54 40.9355C54 41.5452 53.7556 42.1302 53.3203 42.5626L51.416 44.4813C50.9772 44.9117 50.384 45.1532 49.7656 45.1532C49.1473 45.1532 48.554 44.9117 48.1152 44.4813L46.6616 43.0454C45.4406 43.7995 44.1118 44.368 42.7197 44.7321V46.6884C42.7164 47.2994 42.4692 47.8844 42.0319 48.3164C41.5945 48.7484 41.0023 48.9926 40.3838 48.9959H37.6289C37.0104 48.9926 36.4182 48.7484 35.9808 48.3164C35.5435 47.8844 35.2963 47.2994 35.293 46.6884V44.7572C33.8885 44.4004 32.5467 43.836 31.313 43.083L29.8975 44.4813C29.4598 44.9113 28.8676 45.1527 28.2502 45.1527C27.6329 45.1527 27.0407 44.9113 26.603 44.4813L24.6606 42.5626C24.2253 42.1302 23.981 41.5452 23.981 40.9355C23.981 40.3257 24.2253 39.7407 24.6606 39.3083L26.1841 37.7972C25.5093 36.6012 25.0132 35.315 24.7114 33.9786H22.4199C21.802 33.9753 21.2105 33.7309 20.7741 33.2987C20.3378 32.8665 20.092 32.2815 20.0903 31.6711V28.9561C20.0929 28.3654 20.3247 27.7981 20.738 27.3711C21.1513 26.9442 21.7147 26.6901 22.312 26.6612H30.126C29.7527 27.6784 29.5616 28.752 29.561 29.8339C29.561 29.997 29.561 30.1537 29.561 30.3168C29.561 30.4798 29.561 30.6365 29.561 30.7933C29.561 33.2528 30.5501 35.6117 32.3108 37.3508C34.0714 39.09 36.4593 40.067 38.9492 40.067C41.4391 40.067 43.827 39.09 45.5877 37.3508C47.3483 35.6117 48.3374 33.2528 48.3374 30.7933C48.3374 30.6365 48.3374 30.4735 48.3374 30.3168C48.3374 30.16 48.3374 29.997 48.3374 29.8339C48.3369 28.752 48.1457 27.6784 47.7725 26.6612H55.688C56.2853 26.6901 56.8487 26.9442 57.262 27.3711C57.6753 27.7981 57.9071 28.3654 57.9097 28.9561V30.3168V30.3418ZM11.1973 24.4541H66.6504V52.7957H11.1973V24.4541ZM36.7529 55.0718H41.2598C41.4558 55.0765 41.6427 55.1551 41.7819 55.2915C41.9212 55.4279 42.0024 55.6118 42.0088 55.8054C42.0113 55.905 41.9939 56.0042 41.9577 56.0972C41.9214 56.1902 41.8669 56.2753 41.7974 56.3475C41.7278 56.4197 41.6445 56.4776 41.5523 56.518C41.46 56.5584 41.3606 56.5805 41.2598 56.5829H36.7529C36.651 56.5821 36.5502 56.5613 36.4565 56.5216C36.3628 56.4819 36.278 56.4242 36.2071 56.3519C36.1362 56.2795 36.0806 56.1939 36.0435 56.1001C36.0065 56.0063 35.9887 55.9061 35.9912 55.8054V55.8054C35.9912 55.6058 36.0715 55.4145 36.2143 55.2734C36.3572 55.1322 36.5509 55.053 36.7529 55.053V55.0718Z" fill="#9EEFF4"/>
</g>
<defs>
<clipPath id="clip0_1015_270">
<rect width="78" height="58" fill="white"/>
</clipPath>
</defs>
</svg>
