<svg id="Layer_1" data-name="Layer 1" xmlns="http://www.w3.org/2000/svg" xmlns:xlink="http://www.w3.org/1999/xlink" viewBox="0 0 369.02 155.02"><defs><style>.cls-1{fill:#fff;}.cls-2{font-size:30.27px;fill:#272d70;font-family:FuturaBT-Bold, FuturaBT Bold;font-weight:700;}.cls-3{letter-spacing:-0.08em;}.cls-4{letter-spacing:-0.01em;}.cls-5{font-size:12.77px;fill:#434343;font-family:CenturyGothic, Century Gothic;letter-spacing:0.2em;}.cls-6{fill:url(#linear-gradient);}.cls-7{fill:url(#linear-gradient-2);}.cls-8{fill:url(#linear-gradient-3);}.cls-9{fill:url(#linear-gradient-4);}</style><linearGradient id="linear-gradient" x1="57.28" y1="101.87" x2="126.21" y2="32.94" gradientUnits="userSpaceOnUse"><stop offset="0" stop-color="#293176"/><stop offset="0" stop-color="#293277"/><stop offset="0.11" stop-color="#174b91"/><stop offset="0.22" stop-color="#0a5da4"/><stop offset="0.34" stop-color="#0367af"/><stop offset="0.46" stop-color="#006bb3"/><stop offset="1" stop-color="#20b2e7"/></linearGradient><linearGradient id="linear-gradient-2" x1="70.99" y1="98.3" x2="145.1" y2="24.19" xlink:href="#linear-gradient"/><linearGradient id="linear-gradient-3" x1="103.28" y1="53.38" x2="158.6" y2="108.7" gradientUnits="userSpaceOnUse"><stop offset="0.02" stop-color="#f16622"/><stop offset="0.14" stop-color="#f27221"/><stop offset="0.33" stop-color="#f47d20"/><stop offset="0.53" stop-color="#f48120"/><stop offset="0.99" stop-color="#fcb614"/></linearGradient><linearGradient id="linear-gradient-4" x1="92.11" y1="64.66" x2="137.18" y2="109.73" xlink:href="#linear-gradient-3"/></defs><polygon class="cls-1" points="369.02 147.99 0 155.02 6 1.02 367.64 0 369.02 147.99"/><text class="cls-2" transform="translate(190.37 76.62) scale(1.14 1)">S<tspan class="cls-3" x="14.92" y="0">P</tspan><tspan x="28.48" y="0">AN</tspan><tspan class="cls-4" x="66.92" y="0">D</tspan><tspan x="86.65" y="0">ANA</tspan></text><text class="cls-5" transform="translate(190.08 98.19) scale(1.14 1)">TECHNOLOGIES</text><path class="cls-6" d="M64.83,103C46.74,80.42,52.9,49.29,78.59,33.41a62.42,62.42,0,0,1,34-9.1,2.43,2.43,0,0,0,1.33-.35h0c1.78-1.1.94-3.57-1.23-3.61A67.21,67.21,0,0,0,76,30.16C48.24,47.3,41.6,80.92,61.13,105.25a60.52,60.52,0,0,0,27.14,18.93,2.54,2.54,0,0,0,2.15-.23h0a1.88,1.88,0,0,0-.49-3.47A55.89,55.89,0,0,1,64.83,103Z"/><path class="cls-7" d="M80.38,52.54,136.27,18a1.45,1.45,0,0,0,.44-2.19,2,2,0,0,0-2.5-.38L67.9,56.4A1.64,1.64,0,0,0,67.07,58l4.1,40a1.8,1.8,0,0,0,1.14,1.42l19.57,7.94a2.21,2.21,0,0,0,2-.16l34.68-21.43a1.61,1.61,0,0,0,.49-2.42l-5-6.22a2.19,2.19,0,0,0-2.77-.42L91.49,95.1a2.14,2.14,0,0,1-2.77-.45c-2-2.53-5.84-7.66-7.6-10.37-7-10.83-9.2-19.57-4.22-28.27A10.05,10.05,0,0,1,80.38,52.54Z"/><path class="cls-8" d="M161.57,43.19a60.56,60.56,0,0,0-27.16-18.92,2.54,2.54,0,0,0-2.15.23h0a1.88,1.88,0,0,0,.49,3.47,55.86,55.86,0,0,1,25.11,17.51C176,68,169.8,99.16,144.11,115a62.24,62.24,0,0,1-34,9.09,2.55,2.55,0,0,0-1.33.36h0c-1.78,1.1-.93,3.57,1.24,3.61a67.26,67.26,0,0,0,36.69-9.82C174.45,101.14,181.11,67.53,161.57,43.19Z"/><path class="cls-9" d="M155.63,90.46l-4.1-40A1.82,1.82,0,0,0,150.38,49l-19.56-7.95a2.24,2.24,0,0,0-2,.17L94.16,62.69a1.61,1.61,0,0,0-.48,2.42L97.63,70a4.15,4.15,0,0,0,5.27.8l28.3-17.49a2.14,2.14,0,0,1,2.77.44c1.95,2.53,5.85,7.67,7.6,10.37,6.79,10.48,9.06,19,4.69,27.43a12,12,0,0,1-4.35,4.57L86.42,130.45a1.45,1.45,0,0,0-.43,2.19,2,2,0,0,0,2.49.38l66.31-41A1.67,1.67,0,0,0,155.63,90.46Z"/></svg>