<svg width="30" height="30" viewBox="0 0 30 30" fill="none" xmlns="http://www.w3.org/2000/svg">
<circle cx="15" cy="15" r="15" fill="#B1CF5C"/>
<path d="M19.7829 10.2172L17.875 9.35433L19.7829 8.49141L20.6459 6.5835L21.5088 8.49141L23.4167 9.35433L21.5088 10.2172L20.6459 12.1252L19.7829 10.2172ZM22.8467 15.0702L22.2292 13.7085L21.6117 15.0702L20.25 15.6877L21.6117 16.3052L22.2292 17.6668L22.8467 16.3052L24.2084 15.6877L22.8467 15.0702ZM18.8567 16.3764L20.3925 17.5402L18.4134 20.9681L16.64 20.2239C16.4817 20.3268 16.3075 20.4297 16.1334 20.5168L15.8959 22.4168H11.9375L11.7 20.5089C11.5259 20.4218 11.3596 20.3268 11.1934 20.216L9.42002 20.9602L7.44086 17.5322L8.97669 16.3685C8.96877 16.2814 8.96877 16.1785 8.96877 16.0835C8.96877 15.9885 8.96877 15.8856 8.97669 15.7906L7.44086 14.6268L9.42002 11.1989L11.1934 11.9431C11.3517 11.8402 11.5259 11.7372 11.7 11.6502L11.9375 9.75016H15.8959L16.1334 11.6581C16.3075 11.7452 16.4738 11.8402 16.64 11.951L18.4134 11.2068L20.3925 14.6347L18.8567 15.7985C18.8646 15.8935 18.8646 15.9885 18.8646 16.0914C18.8646 16.1943 18.8646 16.2814 18.8567 16.3764ZM16.2917 16.0835C16.2917 14.7693 15.2309 13.7085 13.9167 13.7085C12.6025 13.7085 11.5417 14.7693 11.5417 16.0835C11.5417 17.3977 12.6025 18.4585 13.9167 18.4585C15.2309 18.4585 16.2917 17.3977 16.2917 16.0835Z" fill="white"/>
</svg>
