<svg width="90" height="90" viewBox="0 0 90 90" fill="none" xmlns="http://www.w3.org/2000/svg">
<g clip-path="url(#clip0_1090_99)">
<path d="M41.7856 12.3556C41.7856 11.0297 41.7856 1.33254 41.7856 0.00012207H9.64281C4.32579 0.00012207 0 4.32574 0 9.64294V41.7857C1.46232 41.7857 14.9363 41.7857 16.6821 41.7857C18.8724 41.7857 20.4312 43.9399 19.7282 46.0263C19.5553 46.5397 17.7581 48.9871 19.4799 51.9689C21.5456 55.5464 26.6698 55.5452 28.7346 51.9689C29.6989 50.2988 29.7219 48.2937 28.7483 46.6072C27.5118 44.4652 29.0633 41.7857 31.5321 41.7857H41.7856V35.8587C41.6372 35.8725 41.4885 35.8832 41.3402 35.8911C34.9669 36.2295 28.9286 31.2114 28.9286 24.1071C28.9284 16.8537 35.2316 11.7535 41.7856 12.3556Z" fill="white" fill-opacity="0.3"/>
<path d="M89.0005 9.64306V40.7856H88.9887H88.969H88.9491H88.9291H88.909H88.8887H88.8683H88.8478H88.8271H88.8063H88.7854H88.7644H88.7432H88.7219H88.7004H88.6788H88.6571H88.6353H88.6134H88.5913H88.5691H88.5468H88.5244H88.5018H88.4791H88.4563H88.4334H88.4104H88.3872H88.3639H88.3406H88.3171H88.2934H88.2697H88.2459H88.2219H88.1979H88.1737H88.1494H88.125H88.1005H88.0759H88.0512H88.0263H88.0014H87.9764H87.9512H87.926H87.9007H87.8752H87.8497H87.824H87.7983H87.7724H87.7465H87.7204H87.6943H87.6681H87.6417H87.6153H87.5888H87.5622H87.5355H87.5087H87.4818H87.4549H87.4278H87.4007H87.3734H87.3461H87.3187H87.2912H87.2636H87.236H87.2082H87.1804H87.1525H87.1245H87.0964H87.0683H87.0401H87.0117H86.9834H86.9549H86.9264H86.8978H86.8691H86.8403H86.8115H86.7826H86.7536H86.7246H86.6955H86.6663H86.6371H86.6077H86.5784H86.5489H86.5194H86.4898H86.4602H86.4305H86.4007H86.3709H86.341H86.3111H86.2811H86.251H86.2209H86.1907H86.1605H86.1302H86.0998H86.0694H86.039H86.0085H85.9779H85.9473H85.9167H85.886H85.8552H85.8244H85.7936H85.7627H85.7318H85.7008H85.6697H85.6387H85.6076H85.5764H85.5452H85.514H85.4827H85.4514H85.42H85.3886H85.3572H85.3257H85.2942H85.2627H85.2311H85.1995H85.1679H85.1362H85.1046H85.0728H85.0411H85.0093H84.9775H84.9457H84.9138H84.8819H84.85H84.8181H84.7861H84.7541H84.7221H84.6901H84.6581H84.626H84.5939H84.5618H84.5297H84.4976H84.4654H84.4333H84.4011H84.3689H84.3367H84.3045H84.2722H84.24H84.2078H84.1755H84.1432H84.111H84.0787H84.0464H84.0141H83.9818H83.9495H83.9172H83.8849H83.8526H83.8203H83.788H83.7557H83.7234H83.6911H83.6588H83.6265H83.5943H83.562H83.5297H83.4974H83.4652H83.4329H83.4007H83.3684H83.3362H83.304H83.2718H83.2396H83.2074H83.1753H83.1431H83.111H83.0789H83.0468H83.0147H82.9827H82.9506H82.9186H82.8866H82.8546H82.8227H82.7907H82.7588H82.727H82.6951H82.6633H82.6315H82.5997H82.5679H82.5362H82.5045H82.4729H82.4413H82.4097H82.3781H82.3466H82.3151H82.2836H82.2522H82.2208H82.1895H82.1582H82.1269H82.0957H82.0645H82.0333H82.0022H81.9712H81.9402H81.9092H81.8783H81.8474H81.8165H81.7857H81.755H81.7243H81.6937H81.6631H81.6325H81.602H81.5716H81.5412H81.5109H81.4806H81.4504H81.4202H81.3901H81.3601H81.3301H81.3001H81.2703H81.2404H81.2107H81.181H81.1514H81.1218H81.0923H81.0629H81.0335H81.0042H80.975H80.9458H80.9167H80.8877H80.8587H80.8298H80.801H80.7723H80.7436H80.715H80.6865H80.6581H80.6297H80.6014H80.5732H80.5451H80.517H80.4891H80.4612H80.4334H80.4056H80.378H80.3504H80.3229H80.2956H80.2682H80.241H80.2139H80.1869H80.1599H80.133H80.1063H80.0796H80.053H80.0265H80.0001H79.9738H79.9476H79.9215H79.8954H79.8695H79.8437H79.818H79.7923H79.7668H79.7414H79.7161H79.6908H79.6657H79.6407H79.6158H79.591H79.5663H79.5417H79.5172H79.4929H79.4686H79.4444H79.4204H79.3965H79.3726H79.3489H79.3253H79.3019H79.2785H79.2553H79.2321H79.2091H79.1862H79.1634H79.1408H79.1183H79.0958H79.0736H79.0514H79.0293H79.0074H78.9856H78.964H78.9424H78.921H78.8997H78.8785H78.8575H78.8366H78.8158H78.7952H78.7747H78.7543H78.7341H78.714H78.694H78.693C78.702 38.536 78.1047 36.3094 76.9536 34.3163C72.0416 25.8095 59.7583 25.7861 54.8328 34.3163L55.6752 34.8028L54.8328 34.3164C53.6727 36.3256 53.0835 38.5481 53.0934 40.7858H49.2146V31.5323C49.2146 28.2949 45.7035 26.2605 42.8935 27.8823C40.0404 29.5291 36.3574 27.5107 36.3574 24.1073C36.3574 20.7075 40.0384 18.6845 42.8936 20.3323C45.6973 21.9511 49.2146 19.926 49.2146 16.6823V16.6719V16.6613V16.6504V16.6393V16.6278V16.6161V16.6042V16.592V16.5795V16.5668V16.5538V16.5405V16.527V16.5133V16.4993V16.485V16.4705V16.4557V16.4407V16.4254V16.4099V16.3942V16.3782V16.3619V16.3454V16.3287V16.3118V16.2945V16.2771V16.2594V16.2415V16.2233V16.2049V16.1863V16.1674V16.1484V16.129V16.1095V16.0897V16.0697V16.0495V16.029V16.0083V15.9874V15.9663V15.945V15.9234V15.9016V15.8796V15.8574V15.835V15.8123V15.7895V15.7664V15.7431V15.7196V15.6959V15.672V15.6479V15.6236V15.599V15.5743V15.5494V15.5242V15.4989V15.4734V15.4476V15.4217V15.3956V15.3692V15.3427V15.316V15.2891V15.262V15.2347V15.2073V15.1796V15.1518V15.1237V15.0955V15.0671V15.0385V15.0098V14.9808V14.9517V14.9224V14.8929V14.8633V14.8334V14.8034V14.7733V14.7429V14.7124V14.6817V14.6508V14.6198V14.5886V14.5573V14.5257V14.4941V14.4622V14.4302V14.398V14.3657V14.3332V14.3006V14.2678V14.2348V14.2017V14.1684V14.135V14.1015V14.0678V14.0339V13.9999V13.9657V13.9314V13.897V13.8624V13.8277V13.7928V13.7578V13.7226V13.6873V13.6519V13.6164V13.5807V13.5448V13.5089V13.4728V13.4366V13.4002V13.3637V13.3271V13.2904V13.2535V13.2165V13.1794V13.1422V13.1048V13.0674V13.0298V12.9921V12.9543V12.9163V12.8783V12.8401V12.8018V12.7634V12.7249V12.6863V12.6476V12.6088V12.5698V12.5308V12.4917V12.4524V12.4131V12.3736V12.3341V12.2944V12.2547V12.2149V12.1749V12.1349V12.0948V12.0546V12.0143V11.9739V11.9334V11.8928V11.8521V11.8114V11.7706V11.7297V11.6887V11.6476V11.6064V11.5652V11.5239V11.4825V11.441V11.3995V11.3578V11.3161V11.2744V11.2325V11.1906V11.1487V11.1066V11.0645V11.0223V10.9801V10.9378V10.8954V10.853V10.8105V10.768V10.7254V10.6827V10.64V10.5972V10.5544V10.5115V10.4686V10.4256V10.3825V10.3394V10.2963V10.2531V10.2099V10.1667V10.1233V10.08V10.0366V9.99316V9.94968V9.90617V9.86262V9.81904V9.77541V9.73176V9.68807V9.64435V9.60061V9.55683V9.51302V9.46918V9.42532V9.38143V9.33752V9.29359V9.24963V9.20565V9.16165V9.11764V9.0736V9.02955V8.98548V8.9414V8.8973V8.85319V8.80907V8.76494V8.7208V8.67665V8.63249V8.58833V8.54416V8.49999V8.45581V8.41163V8.36745V8.32328V8.2791V8.23492V8.19075V8.14658V8.10242V8.05826V8.01412V7.96998V7.92585V7.88173V7.83762V7.79352V7.74944V7.70537V7.66132V7.61729V7.57328V7.52928V7.4853V7.44135V7.39742V7.35351V7.30962V7.26576V7.22193V7.17813V7.13435V7.09061V7.04689V7.00321V6.95956V6.91594V6.87236V6.82881V6.78531V6.74184V6.69841V6.65502V6.61167V6.56836V6.5251V6.48188V6.43871V6.39558V6.35251V6.30948V6.2665V6.22357V6.18069V6.13787V6.0951V6.05239V6.00973V5.96713V5.92459V5.88211V5.83969V5.79733V5.75503V5.7128V5.67063V5.62853V5.5865V5.54453V5.50263V5.4608V5.41904V5.37736V5.33575V5.29421V5.25275V5.21136V5.17006V5.12883V5.08768V5.04661V5.00562V4.96472V4.9239V4.88316V4.84251V4.80195V4.76148V4.72109V4.6808V4.64059V4.60048V4.56046V4.52054V4.48071V4.44098V4.40135V4.36182V4.32238V4.28305V4.24382V4.20469V4.16566V4.12674V4.08793V4.04922V4.01063V3.97214V3.93376V3.89549V3.85734V3.8193V3.78137V3.74356V3.70587V3.6683V3.63084V3.5935V3.55629V3.51919V3.48222V3.44538V3.40866V3.37206V3.3356V3.29926V3.26305V3.22697V3.19103V3.15521V3.11953V3.08399V3.04858V3.01331V2.97817V2.94318V2.90832V2.87361V2.83904V2.80461V2.77032V2.73619V2.70219V2.66835V2.63465V2.60111V2.56771V2.53447V2.50138V2.46844V2.43566V2.40304V2.37057V2.33826V2.30611V2.27412V2.24229V2.21062V2.17912V2.14778V2.1166V2.0856V2.05476V2.02409V1.99359V1.96326V1.9331V1.90312V1.87331V1.84367V1.81422V1.78493V1.75583V1.72691V1.69816V1.6696V1.64122V1.61303V1.58502V1.55719V1.52956V1.50211V1.47484V1.44777V1.42089V1.39421V1.36771V1.34141V1.31531V1.2894V1.26369V1.23817V1.21286V1.18775V1.16284V1.13813V1.11362V1.08933V1.06523V1.04135V1.01767V1.00018H80.3573C85.1221 1.00018 89.0002 4.87806 89.0005 9.64299C89.0005 9.64302 89.0005 9.64304 89.0005 9.64306Z" stroke="white" stroke-opacity="0.3" stroke-width="2"/>
<path d="M69.6538 38.5313C70.4341 39.8828 70.4679 41.5064 69.6674 42.8932L69.6674 42.8932C68.0492 45.6968 70.0733 49.2142 73.3173 49.2142H73.3277H73.3383H73.3492H73.3604H73.3718H73.3835H73.3954H73.4076H73.4201H73.4329H73.4458H73.4591H73.4726H73.4863H73.5004H73.5146H73.5291H73.5439H73.5589H73.5742H73.5897H73.6054H73.6214H73.6377H73.6542H73.6709H73.6879H73.7051H73.7225H73.7402H73.7581H73.7763H73.7947H73.8133H73.8322H73.8513H73.8706H73.8901H73.9099H73.9299H73.9502H73.9706H73.9913H74.0122H74.0333H74.0547H74.0762H74.098H74.12H74.1422H74.1647H74.1873H74.2102H74.2332H74.2565H74.28H74.3037H74.3276H74.3517H74.3761H74.4006H74.4253H74.4503H74.4754H74.5007H74.5263H74.552H74.5779H74.6041H74.6304H74.6569H74.6836H74.7105H74.7376H74.7649H74.7924H74.82H74.8479H74.8759H74.9041H74.9325H74.9611H74.9899H75.0188H75.0479H75.0772H75.1067H75.1364H75.1662H75.1962H75.2264H75.2567H75.2872H75.3179H75.3488H75.3798H75.411H75.4424H75.4739H75.5056H75.5374H75.5694H75.6016H75.6339H75.6664H75.6991H75.7319H75.7648H75.7979H75.8312H75.8646H75.8982H75.9319H75.9657H75.9997H76.0339H76.0682H76.1026H76.1372H76.172H76.2068H76.2418H76.277H76.3123H76.3477H76.3833H76.419H76.4548H76.4907H76.5268H76.5631H76.5994H76.6359H76.6725H76.7092H76.7461H76.7831H76.8202H76.8574H76.8948H76.9322H76.9698H77.0075H77.0454H77.0833H77.1214H77.1595H77.1978H77.2362H77.2747H77.3133H77.352H77.3908H77.4298H77.4688H77.508H77.5472H77.5865H77.626H77.6655H77.7052H77.7449H77.7848H77.8247H77.8647H77.9048H77.9451H77.9854H78.0258H78.0662H78.1068H78.1475H78.1882H78.2291H78.27H78.311H78.352H78.3932H78.4344H78.4758H78.5171H78.5586H78.6002H78.6418H78.6835H78.7252H78.7671H78.809H78.851H78.893H78.9351H78.9773H79.0195H79.0618H79.1042H79.1466H79.1891H79.2317H79.2743H79.3169H79.3597H79.4024H79.4453H79.4881H79.5311H79.5741H79.6171H79.6602H79.7033H79.7465H79.7897H79.833H79.8763H79.9196H79.963H80.0065H80.0499H80.0935H80.137H80.1806H80.2242H80.2679H80.3116H80.3553H80.399H80.4428H80.4866H80.5304H80.5743H80.6182H80.6621H80.706H80.75H80.794H80.838H80.882H80.926H80.9701H81.0141H81.0582H81.1023H81.1464H81.1906H81.2347H81.2788H81.323H81.3671H81.4113H81.4555H81.4996H81.5438H81.588H81.6322H81.6763H81.7205H81.7647H81.8089H81.853H81.8972H81.9414H81.9855H82.0297H82.0738H82.1179H82.162H82.2061H82.2502H82.2943H82.3383H82.3823H82.4264H82.4703H82.5143H82.5583H82.6022H82.6461H82.69H82.7339H82.7777H82.8215H82.8653H82.909H82.9527H82.9964H83.0401H83.0837H83.1273H83.1708H83.2143H83.2578H83.3012H83.3446H83.388H83.4313H83.4745H83.5177H83.5609H83.604H83.6471H83.6902H83.7331H83.7761H83.8189H83.8618H83.9045H83.9472H83.9899H84.0325H84.075H84.1175H84.1599H84.2023H84.2446H84.2868H84.329H84.3711H84.4131H84.4551H84.497H84.5388H84.5806H84.6223H84.6639H84.7054H84.7469H84.7883H84.8296H84.8708H84.912H84.953H84.994H85.0349H85.0757H85.1165H85.1571H85.1977H85.2382H85.2785H85.3188H85.359H85.3991H85.4392H85.4791H85.5189H85.5586H85.5983H85.6378H85.6772H85.7166H85.7558H85.7949H85.834H85.8729H85.9117H85.9504H85.989H86.0275H86.0659H86.1041H86.1423H86.1803H86.2183H86.2561H86.2938H86.3313H86.3688H86.4061H86.4433H86.4804H86.5174H86.5542H86.591H86.6276H86.664H86.7004H86.7366H86.7727H86.8086H86.8444H86.8801H86.9156H86.951H86.9863H87.0215H87.0565H87.0913H87.126H87.1606H87.195H87.2293H87.2634H87.2974H87.3313H87.365H87.3985H87.4319H87.4652H87.4982H87.5312H87.564H87.5966H87.6291H87.6614H87.6935H87.7255H87.7573H87.789H87.8205H87.8519H87.883H87.914H87.9449H87.9755H88.006H88.0364H88.0665H88.0965H88.1263H88.156H88.1854H88.2147H88.2438H88.2727H88.3015H88.33H88.3584H88.3866H88.4146H88.4424H88.4701H88.4975H88.5248H88.5519H88.5787H88.6054H88.6319H88.6582H88.6843H88.7102H88.7359H88.7615H88.7868H88.8119H88.8368H88.8615H88.886H88.9103H88.9344H88.9583H88.982H88.9994V80.3568C88.9994 85.1216 85.1214 88.9996 80.3566 88.9996H49.2139V88.9882V88.9685V88.9486V88.9287V88.9085V88.8883V88.8679V88.8473V88.8267V88.8059V88.785V88.7639V88.7427V88.7214V88.7V88.6784V88.6567V88.6349V88.6129V88.5909V88.5687V88.5464V88.5239V88.5014V88.4787V88.4559V88.433V88.4099V88.3868V88.3635V88.3401V88.3166V88.293V88.2693V88.2454V88.2215V88.1974V88.1732V88.149V88.1246V88.1001V88.0754V88.0507V88.0259V88.001V87.9759V87.9508V87.9256V87.9002V87.8748V87.8492V87.8236V87.7978V87.772V87.746V87.72V87.6938V87.6676V87.6413V87.6149V87.5883V87.5617V87.535V87.5082V87.4814V87.4544V87.4273V87.4002V87.3729V87.3456V87.3182V87.2907V87.2631V87.2355V87.2077V87.1799V87.152V87.124V87.0959V87.0678V87.0395V87.0112V86.9828V86.9544V86.9258V86.8972V86.8685V86.8398V86.811V86.7821V86.7531V86.724V86.6949V86.6657V86.6365V86.6072V86.5778V86.5483V86.5188V86.4892V86.4596V86.4299V86.4001V86.3703V86.3404V86.3105V86.2804V86.2504V86.2202V86.1901V86.1598V86.1295V86.0992V86.0688V86.0383V86.0078V85.9773V85.9467V85.916V85.8853V85.8545V85.8237V85.7929V85.762V85.731V85.7V85.669V85.6379V85.6068V85.5757V85.5445V85.5132V85.4819V85.4506V85.4192V85.3878V85.3564V85.3249V85.2934V85.2619V85.2303V85.1987V85.1671V85.1354V85.1037V85.072V85.0402V85.0084V84.9766V84.9448V84.9129V84.881V84.8491V84.8172V84.7852V84.7532V84.7212V84.6892V84.6571V84.6251V84.593V84.5609V84.5287V84.4966V84.4645V84.4323V84.4001V84.3679V84.3357V84.3035V84.2712V84.239V84.2067V84.1745V84.1422V84.1099V84.0776V84.0454V84.0131V83.9808V83.9485V83.9161V83.8838V83.8515V83.8192V83.7869V83.7546V83.7223V83.69V83.6577V83.6254V83.5931V83.5608V83.5285V83.4962V83.464V83.4317V83.3995V83.3672V83.335V83.3028V83.2706V83.2384V83.2062V83.174V83.1419V83.1097V83.0776V83.0455V83.0134V82.9813V82.9493V82.9173V82.8853V82.8533V82.8213V82.7894V82.7575V82.7256V82.6937V82.6619V82.6301V82.5983V82.5665V82.5348V82.5031V82.4714V82.4398V82.4082V82.3766V82.3451V82.3136V82.2821V82.2507V82.2193V82.188V82.1567V82.1254V82.0941V82.0629V82.0318V82.0007V81.9696V81.9386V81.9076V81.8767V81.8458V81.8149V81.7841V81.7534V81.7227V81.692V81.6614V81.6309V81.6004V81.5699V81.5395V81.5092V81.4789V81.4487V81.4185V81.3884V81.3583V81.3283V81.2984V81.2685V81.2387V81.2089V81.1792V81.1496V81.12V81.0905V81.0611V81.0317V81.0024V80.9731V80.944V80.9149V80.8858V80.8569V80.828V80.7991V80.7704V80.7417V80.7131V80.6846V80.6562V80.6278V80.5995V80.5713V80.5431V80.5151V80.4871V80.4592V80.4314V80.4036V80.376V80.3484V80.3209V80.2935V80.2662V80.239V80.2118V80.1848V80.1578V80.131V80.1042V80.0775V80.0509V80.0244V79.998V79.9717V79.9454V79.9193V79.8933V79.8674V79.8415V79.8158V79.7902V79.7646V79.7392V79.7139V79.6886V79.6635V79.6385V79.6136V79.5888V79.5641V79.5395V79.515V79.4906V79.4663V79.4422V79.4181V79.3942V79.3703V79.3466V79.323V79.2996V79.2762V79.2529V79.2298V79.2068V79.1839V79.1611V79.1384V79.1159V79.0935V79.0712V79.049V79.0269V79.005V78.9832V78.9615V78.94V78.9186V78.8973V78.8761V78.8551V78.8342V78.8134V78.7927V78.7722V78.7519V78.7316V78.7115V78.6915V78.6905C51.4381 78.7003 53.662 78.1179 55.6831 76.951C64.1916 72.0383 64.2146 59.756 55.6831 54.83C53.6619 53.6629 51.4382 53.0808 49.2139 53.0905V49.2142H58.4673C61.6938 49.2142 63.745 45.7127 62.1174 42.8932C61.3145 41.5023 61.3554 39.875 62.1312 38.5313L62.1313 38.5313C63.8172 35.6112 67.9906 35.651 69.6538 38.5313ZM69.6538 38.5313L70.5198 38.0313M69.6538 38.5313L70.5198 38.0313M70.5198 38.0313C71.4725 39.6813 71.5187 41.6863 70.5335 43.3931C69.2995 45.5311 70.8442 48.2142 73.3173 48.2142H88.9994H58.4673C60.9292 48.2142 62.4915 45.5415 61.2514 43.3931C60.2628 41.6805 60.318 39.6718 61.2652 38.0313C63.3416 34.4351 68.4772 34.4938 70.5198 38.0313Z" stroke="white" stroke-opacity="0.3" stroke-width="2"/>
<path d="M51.9332 61.3247L51.4687 62.1291C49.5227 61.0054 48.171 61.6318 47.0604 62.1464C46.7143 62.3068 46.3916 62.4564 46.0817 62.5387C43.4021 63.2505 40.7858 61.2238 40.7858 58.4654V49.2142H36.907C36.9168 51.4384 36.3347 53.6623 35.1676 55.6834C30.2464 64.2068 17.9646 64.2015 13.0465 55.6834C11.8794 53.6623 11.2973 51.4385 11.3071 49.2142H11.3063H11.2863H11.2662H11.246H11.2256H11.2051H11.1845H11.1637H11.1428H11.1218H11.1006H11.0793H11.0579H11.0364H11.0147H10.9929H10.971H10.949H10.9268H10.9045H10.8821H10.8596H10.8369H10.8141H10.7912H10.7682H10.7451H10.7218H10.6985H10.675H10.6514H10.6277H10.6039H10.58H10.5559H10.5318H10.5075H10.4831H10.4586H10.434H10.4093H10.3845H10.3596H10.3346H10.3095H10.2843H10.259H10.2335H10.208H10.1824H10.1567H10.1308H10.1049H10.0789H10.0528H10.0266H10.0003H9.97385H9.94736H9.92077H9.89409H9.86732H9.84045H9.8135H9.78646H9.75933H9.73211H9.70481H9.67742H9.64994H9.62238H9.59474H9.56701H9.5392H9.51131H9.48334H9.45529H9.42715H9.39894H9.37066H9.34229H9.31385H9.28533H9.25674H9.22807H9.19933H9.17052H9.14163H9.11268H9.08365H9.05456H9.02539H8.99616H8.96686H8.93749H8.90806H8.87856H8.849H8.81938H8.78969H8.75994H8.73012H8.70025H8.67032H8.64033H8.61028H8.58017H8.55H8.51978H8.4895H8.45917H8.42879H8.39835H8.36786H8.33731H8.30672H8.27608H8.24538H8.21464H8.18385H8.15302H8.12213H8.0912H8.06023H8.02921H7.99815H7.96704H7.9359H7.90471H7.87348H7.84221H7.8109H7.77956H7.74818H7.71676H7.6853H7.65381H7.62228H7.59073H7.55913H7.52751H7.49585H7.46417H7.43245H7.4007H7.36893H7.33713H7.3053H7.27344H7.24156H7.20966H7.17773H7.14578H7.1138H7.0818H7.04979H7.01775H6.98569H6.95361H6.92152H6.88941H6.85728H6.82513H6.79297H6.7608H6.72861H6.69641H6.6642H6.63198H6.59974H6.5675H6.53525H6.50299H6.47072H6.43844H6.40616H6.37387H6.34158H6.30929H6.27699H6.24469H6.21239H6.18008H6.14778H6.11548H6.08318H6.05088H6.01858H5.98629H5.954H5.92172H5.88944H5.85717H5.82491H5.79266H5.76041H5.72817H5.69595H5.66373H5.63153H5.59934H5.56717H5.535H5.50286H5.47073H5.43861H5.40651H5.37443H5.34237H5.31033H5.2783H5.2463H5.21432H5.18237H5.15043H5.11852H5.08664H5.05478H5.02294H4.99113H4.95935H4.9276H4.89588H4.86419H4.83253H4.8009H4.7693H4.73773H4.7062H4.6747H4.64324H4.61181H4.58042H4.54907H4.51775H4.48648H4.45524H4.42405H4.39289H4.36178H4.33071H4.29968H4.2687H4.23776H4.20687H4.17602H4.14522H4.11447H4.08377H4.05311H4.02251H3.99195H3.96145H3.931H3.90061H3.87027H3.83998H3.80975H3.77957H3.74945H3.71939H3.68938H3.65944H3.62955H3.59973H3.56997H3.54027H3.51063H3.48105H3.45154H3.4221H3.39272H3.3634H3.33416H3.30498H3.27587H3.24683H3.21786H3.18896H3.16013H3.13138H3.1027H3.07409H3.04556H3.0171H2.98872H2.96042H2.93219H2.90405H2.87598H2.84799H2.82008H2.79226H2.76451H2.73685H2.70927H2.68178H2.65437H2.62705H2.59982H2.57267H2.54561H2.51864H2.49176H2.46497H2.43827H2.41166H2.38515H2.35873H2.3324H2.30617H2.28004H2.254H2.22805H2.20221H2.17646H2.15082H2.12527H2.09983H2.07448H2.04924H2.0241H1.99907H1.97414H1.94932H1.9246H1.89999H1.87549H1.85109H1.8268H1.80263H1.77856H1.75461H1.73077H1.70704H1.68343H1.65992H1.63654H1.61327H1.59012H1.56708H1.54416H1.52137H1.49869H1.47613H1.45369H1.43138H1.40918H1.38711H1.36517H1.34335H1.32165H1.30008H1.27864H1.25733H1.23614H1.21509H1.19416H1.17337H1.1527H1.13217H1.11178H1.09151H1.07138H1.05139H1.03153H1.01181H1V80.357C1 85.1217 4.87808 88.9998 9.64281 88.9998H40.7856V88.9848V88.9612V88.9373V88.9132V88.889V88.8645V88.8398V88.8149V88.7898V88.7645V88.739V88.7133V88.6875V88.6614V88.6351V88.6086V88.5819V88.5551V88.528V88.5008V88.4733V88.4457V88.4179V88.3899V88.3617V88.3334V88.3048V88.2761V88.2472V88.2181V88.1888V88.1594V88.1298V88.1V88.07V88.0398V88.0095V87.979V87.9484V87.9175V87.8865V87.8554V87.824V87.7926V87.7609V87.7291V87.6971V87.6649V87.6326V87.6002V87.5676V87.5348V87.5018V87.4688V87.4355V87.4021V87.3686V87.3349V87.301V87.2671V87.2329V87.1986V87.1642V87.1296V87.0949V87.0601V87.0251V86.9899V86.9547V86.9193V86.8837V86.848V86.8122V86.7763V86.7402V86.704V86.6676V86.6312V86.5946V86.5578V86.521V86.484V86.4469V86.4097V86.3724V86.3349V86.2973V86.2596V86.2218V86.1839V86.1458V86.1077V86.0694V86.031V85.9925V85.9539V85.9152V85.8763V85.8374V85.7984V85.7592V85.72V85.6807V85.6412V85.6017V85.562V85.5223V85.4824V85.4425V85.4025V85.3624V85.3221V85.2818V85.2414V85.2009V85.1604V85.1197V85.079V85.0381V84.9972V84.9562V84.9151V84.874V84.8327V84.7914V84.75V84.7085V84.667V84.6253V84.5836V84.5418V84.5V84.4581V84.4161V84.3741V84.3319V84.2897V84.2475V84.2052V84.1628V84.1204V84.0779V84.0353V83.9927V83.95V83.9073V83.8645V83.8216V83.7787V83.7358V83.6928V83.6497V83.6066V83.5635V83.5203V83.4771V83.4338V83.3905V83.3471V83.3037V83.2602V83.2167V83.1732V83.1296V83.086V83.0424V82.9987V82.955V82.9113V82.8675V82.8237V82.7799V82.736V82.6921V82.6482V82.6043V82.5603V82.5164V82.4724V82.4283V82.3843V82.3402V82.2962V82.2521V82.208V82.1639V82.1197V82.0756V82.0314V81.9873V81.9431V81.8989V81.8547V81.8105V81.7663V81.7221V81.6779V81.6337V81.5895V81.5453V81.5011V81.4569V81.4127V81.3685V81.3243V81.2802V81.236V81.1918V81.1477V81.1036V81.0594V81.0153V80.9712V80.9272V80.8831V80.839V80.795V80.751V80.707V80.6631V80.6191V80.5752V80.5313V80.4875V80.4436V80.3998V80.356V80.3123V80.2686V80.2249V80.1813V80.1376V80.0941V80.0505V80.007V79.9636V79.9202V79.8768V79.8334V79.7901V79.7469V79.7037V79.6605V79.6174V79.5744V79.5313V79.4884V79.4455V79.4026V79.3598V79.3171V79.2744V79.2318V79.1892V79.1467V79.1042V79.0618V79.0195V78.9772V78.935V78.8929V78.8508V78.8088V78.7669V78.725V78.6832V78.6415V78.5999V78.5583V78.5168V78.4754V78.434V78.3928V78.3516V78.3105V78.2695V78.2285V78.1877V78.1469V78.1062V78.0656V78.0251V77.9847V77.9444V77.9041V77.864V77.8239V77.784V77.7441V77.7043V77.6647V77.6251V77.5856V77.5463V77.507V77.4678V77.4288V77.3898V77.351V77.3122V77.2736V77.2351V77.1967V77.1584V77.1202V77.0821V77.0441V77.0063V76.9686V76.931V76.8935V76.8561V76.8189V76.7817V76.7447V76.7078V76.6711V76.6345V76.598V76.5616V76.5253V76.4892V76.4533V76.4174V76.3817V76.3461V76.3107V76.2754V76.2402V76.2052V76.1703V76.1355V76.1009V76.0665V76.0322V75.998V75.964V75.9301V75.8963V75.8628V75.8293V75.7961V75.7629V75.73V75.6972V75.6645V75.632V75.5997V75.5675V75.5355V75.5036V75.4719V75.4404V75.409V75.3778V75.3468V75.3159V75.2852V75.2547V75.2243V75.1941V75.1641V75.1343V75.1046V75.0751V75.0458V75.0167V74.9877V74.9589V74.9303V74.9019V74.8737V74.8457V74.8178V74.7901V74.7627V74.7354V74.7083V74.6814V74.6547V74.6281V74.6018V74.5757V74.5497V74.524V74.4985V74.4731V74.448V74.4231V74.3983V74.3738V74.3495V74.3253V74.3014V74.2777V74.2542V74.231V74.2079V74.185V74.1624V74.14V74.1177V74.0957V74.074V74.0524V74.0311V74.0099V73.989V73.9684V73.9479V73.9277V73.9077V73.8879V73.8684V73.8491V73.83V73.8111V73.7925V73.7741V73.756V73.738V73.7204V73.7029V73.6857V73.6688V73.652V73.6356V73.6193V73.6033V73.5876V73.5721V73.5569V73.5419V73.5271V73.5126V73.4984V73.4844V73.4706V73.4571V73.4439V73.4309V73.4182V73.4058V73.3936V73.3816V73.37V73.3585V73.3474V73.3365V73.3259V73.3156C40.7856 70.0719 44.3029 68.0467 47.1067 69.6657L51.9332 61.3247ZM51.9332 61.3247L51.4687 62.1291C54.3514 63.7938 54.3919 67.964 51.4686 69.6518L51.4685 69.6518M51.9332 61.3247L51.4685 69.6518M51.4685 69.6518C50.1113 70.4356 48.4877 70.4629 47.1068 69.6657L51.4685 69.6518Z" stroke="white" stroke-opacity="0.3" stroke-width="2"/>
</g>
<defs>
<clipPath id="clip0_1090_99">
<rect width="90" height="90" fill="white"/>
</clipPath>
</defs>
</svg>
