<svg width="65" height="65" viewBox="0 0 65 65" fill="none" xmlns="http://www.w3.org/2000/svg">
<g filter="url(#filter0_i_1041_1148)">
<path d="M0 5C0 2.2386 2.2386 0 5 0H65V65H5C2.2386 65 0 62.7614 0 60V5Z" fill="#25D366"/>
</g>
<path fill-rule="evenodd" clip-rule="evenodd" d="M49.1667 16.8129C47.322 14.9638 45.1266 13.4977 42.7078 12.4998C40.289 11.5019 37.6951 10.9922 35.0767 11.0001C24.1 11.0001 15.1667 19.891 15.1667 30.8201C15.1665 34.2983 16.0861 37.7152 17.8333 40.7277L15 51.0001L25.56 48.2421C28.4786 49.8253 31.7492 50.6561 35.0733 50.6584C39.014 50.6593 42.8664 49.4972 46.1433 47.3193C49.4203 45.1414 51.9746 42.0454 53.4831 38.4229C54.9917 34.8003 55.3868 30.814 54.6185 26.9681C53.8501 23.1221 51.9529 19.5892 49.1667 16.8163V16.8129ZM35.0833 47.32C32.1158 47.3186 29.2033 46.5224 26.6517 45.0148L26.045 44.6549L19.7783 46.2884L21.445 40.2103L21.0533 39.5867C18.8815 36.1553 18.0574 32.0476 18.7386 28.0494C19.4198 24.0513 21.5585 20.4434 24.7456 17.9161C27.9327 15.3888 31.9443 14.1195 36.013 14.3511C40.0816 14.5827 43.9216 16.2988 46.7983 19.1712C49.1154 21.4774 50.6933 24.4154 51.3325 27.6138C51.9717 30.8122 51.6436 34.1273 50.3895 37.1402C49.1354 40.153 47.0118 42.7282 44.2871 44.5401C41.5623 46.3521 38.3589 47.3195 35.0817 47.32H35.0833ZM44.1667 34.9712C43.6667 34.7208 41.2217 33.5267 40.7683 33.3609C40.315 33.195 39.9817 33.1105 39.6433 33.6113C39.305 34.1122 38.3567 35.2217 38.0667 35.555C37.7767 35.8883 37.485 35.9315 36.9917 35.681C36.4983 35.4306 34.8867 34.9082 32.9917 33.2199C31.9004 32.2183 30.9626 31.0627 30.2083 29.7903C29.9167 29.2927 30.1767 29.0257 30.43 28.7836C30.6833 28.5414 30.93 28.2064 31.175 27.9162C31.3822 27.6661 31.5507 27.3866 31.675 27.087C31.7412 26.9505 31.7721 26.7997 31.7651 26.6483C31.7582 26.4969 31.7134 26.3496 31.635 26.2196C31.5 25.9709 30.5 23.5329 30.1 22.5395C29.7 21.5461 29.285 21.7103 28.9783 21.6871C28.6717 21.6639 28.3567 21.6722 28.0283 21.6722C27.7752 21.6781 27.5261 21.7361 27.2966 21.8426C27.0671 21.949 26.8623 22.1016 26.695 22.2908C26.2467 22.7833 24.9583 23.9857 24.9583 26.4236C24.9583 28.8615 26.74 31.2132 26.99 31.5482C27.24 31.8832 30.5 36.8834 35.5 39.0278C36.6867 39.5353 37.6133 39.8404 38.3333 40.0759C39.3487 40.3806 40.4212 40.447 41.4667 40.27C42.4233 40.1306 44.41 39.0742 44.8283 37.9183C45.2467 36.7623 45.245 35.7623 45.12 35.565C44.995 35.3676 44.6717 35.2233 44.17 34.9696L44.1667 34.9712Z" fill="white"/>
<defs>
<filter id="filter0_i_1041_1148" x="-2" y="0" width="67" height="69" filterUnits="userSpaceOnUse" color-interpolation-filters="sRGB">
<feFlood flood-opacity="0" result="BackgroundImageFix"/>
<feBlend mode="normal" in="SourceGraphic" in2="BackgroundImageFix" result="shape"/>
<feColorMatrix in="SourceAlpha" type="matrix" values="0 0 0 0 0 0 0 0 0 0 0 0 0 0 0 0 0 0 127 0" result="hardAlpha"/>
<feOffset dx="-2" dy="4"/>
<feGaussianBlur stdDeviation="15"/>
<feComposite in2="hardAlpha" operator="arithmetic" k2="-1" k3="1"/>
<feColorMatrix type="matrix" values="0 0 0 0 0 0 0 0 0 0 0 0 0 0 0 0 0 0 0.2 0"/>
<feBlend mode="normal" in2="shape" result="effect1_innerShadow_1041_1148"/>
</filter>
</defs>
</svg>
